<?xml version="1.0" encoding="UTF-8"?>
<svg id="Layer_1" data-name="Layer 1" xmlns="http://www.w3.org/2000/svg" viewBox="0 0 450.1 484.2">
  <defs>
    <style>
      .cls-1 {
        fill: #9f2a35;
      }
    </style>
  </defs>
  <path class="cls-1" d="M407.7,105.1c-24.9-36.2-59.4-65.4-99.9-83.7C277.4,7.7,243.6,0,208,0c-55.5,0-106.7,18.7-147.5,50.1-5.6,4.3-11.1,8.9-16.3,13.7-5.7,5.6-10.9,11.6-15.6,18l.8.5,8.2,4.7c6.7,3.9,9.8,11.7,7.9,18.9-.4,1.4-.9,2.9-1.7,4.2-4.7,8.1-15,10.9-23.1,6.2l-8.3-4.8-.8-.5c-5.9,13.6-9.9,28.2-11.7,43.5h10.5c9.4,0,16.9,7.6,16.9,16.9s-7.6,16.9-16.9,16.9H0c1.7,15.3,5.8,29.9,11.7,43.6l.8-.5,8.3-4.8c8.1-4.7,18.4-1.9,23.1,6.2.8,1.4,1.4,2.8,1.8,4.3,1.8,7.2-1.2,14.9-7.9,18.8l-8.3,4.8-.8.5c9,12.1,19.7,22.9,31.9,31.9l.5-.8,4.7-8.3c4.7-8,15-10.9,23.1-6.2,8.1,4.7,10.9,15,6.2,23.1l-4.8,8.3-.5.8-47.8,83.5-9,15.7c21.3,22.3,46.8,40.6,75.3,53.4,30.4,13.8,64.2,21.4,99.7,21.4,133.7,0,242.1-108.4,242.1-242.1s-15.7-98-42.4-136.9ZM250.9,105.9c2.1-20.4,4.1-39.6,4.2-39.8.6-.8,25.3-8.1,25.9-7.7.3.2-1.1,13.8-4.7,47.4-1.6,14.6-3.6,32.9-6.1,55.6-.6,5.3.3,5.4-13.9-2.3-5.6-3.1-10.1-5.6-10.1-5.7.2-3.3,2.5-26.1,4.6-47.5ZM132.5,407.2c-.2-.2-3.3-5.2-6.9-11.2-6.2-10.4-6.4-11.1-4.7-13.2,1.4-1.8,47.5-55.8,53.8-63.2,1.5-1.7,3.3-1.4,14.7,2.3,11,3.6,12.8,4.5,11.6,6.1-4.3,5.6-68.2,79.5-68.5,79.3ZM347.2,236c-5.6,21.5-9.2,32.4-14.1,41.9-2.2,4.3-5,11-6.2,14.8-6.7,20.6-31.6,60.1-50.2,79.6-11.8,12.3-36.1,34.1-45.2,40.8-.8.6-1.6,1.1-2.1,1.4-19.6,11.6-25,12.7-45.1,9.6-15.7-2.4-33.1-6.3-39.1-8.8-4-1.7-4.7-2.3-3.6-3.8,8-10.4,64.9-77.6,65.5-77.4.5.2,2.2,4.1,3.7,8.7,3.1,9.1,5.1,11,10.5,10.2,4.5-.7,7.1-3.6,10.2-11.7,1.4-3.5,3.7-8.5,5.2-11.2,1.5-2.6,4.3-9,6.3-14.2,2-5.2,5.5-13.8,7.8-19.2,5.4-12.2,11.6-27.1,13.8-33.2,1-2.6,3.5-8,5.6-12,2.1-4,4.7-9.8,5.8-12.9.2-.5.4-1,.6-1.6,1.4-3.7,4.1-9.9,6.6-15.1,2.9-6.1,6.2-14.1,7.5-17.8,1.2-3.7,3.6-9.8,5.2-13.5,3.8-8.5,7.9-21,8.2-25.3.2-2.6-.5-3.8-3.4-5.9-4-2.8-4.2-2.7-14.8,2.3-3.6,1.7-6.8,2.9-7.1,2.6-.3-.2,2.7-30.8,5.6-58.6,2.4-23.2,4.8-44.5,5.2-45,.6-.8,34,19.7,34.2,20.9,0,.6,3.1,3.2,6.8,5.9,3.6,2.7,9,7.6,11.8,10.9,2.3,2.7,3.8,4.7,5,7.2,1.1,2.4,2,5.4,3.3,10.2,8.4,31.4,7,79.9-3.3,119.8Z"/>
</svg>