<?xml version="1.0" encoding="UTF-8"?>
<svg id="Layer_1" data-name="Layer 1" xmlns="http://www.w3.org/2000/svg" viewBox="0 0 1907.1 1067.6">
  <defs>
    <style>
      .cls-1 {
        fill: #9f2a35;
      }
    </style>
  </defs>
  <g>
    <path class="cls-1" d="M252.7,131.9c-8.8,0-17.1,2-24.5,5.5-19.1,9.2-32.3,28.7-32.3,51.3s6.8,30.9,17.7,41.3c10.2,9.7,24,15.6,39.1,15.6,31.4,0,56.9-25.4,56.9-56.9s-25.5-56.8-56.9-56.8Z"/>
    <path class="cls-1" d="M505.3,249.1c0-1,0-1.9,0-2.9,0-1.1,0-2.2-.1-3.2,0-1.1,0-2.2-.1-3.2,0-.8,0-1.6-.1-2.4,0-.4,0-.9,0-1.3,0-.9-.1-1.8-.2-2.7,0-1.1-.2-2.1-.3-3.2,0-1.1-.2-2.1-.3-3.2-.1-1.2-.3-2.4-.4-3.6-.1-.9-.2-1.9-.3-2.8-.2-1.8-.5-3.7-.8-5.5-.1-.9-.3-1.9-.4-2.8-.1-.8-.3-1.7-.4-2.5-.1-.8-.3-1.6-.4-2.3,0-.1,0-.2,0-.3-.2-1-.4-2.1-.6-3.1,0-.4-.1-.8-.2-1.2-.2-1.1-.4-2.1-.7-3.2-.1-.7-.3-1.3-.4-2-1-4.6-2.1-9.1-3.4-13.5,0-.2-.1-.4-.2-.7-1.5-5.3-3.2-10.6-5.1-15.8,0-.1,0-.2-.1-.3,0-.3-.2-.5-.3-.8-.2-.6-.4-1.3-.7-1.9-.3-.7-.5-1.4-.8-2.1-.3-.8-.6-1.5-.9-2.3-.2-.5-.4-.9-.6-1.4-.3-.7-.6-1.5-.9-2.2-1-2.4-2-4.8-3.1-7.1-1.2-2.6-2.4-5.3-3.7-7.8-1.1-2.3-2.3-4.6-3.5-6.8,0-.2-.2-.4-.3-.5-.2-.3-.4-.7-.5-1-.7-1.3-1.4-2.7-2.2-4-.8-1.4-1.5-2.7-2.3-4-.8-1.3-1.6-2.7-2.4-4s-1.6-2.6-2.4-3.9c0,0,0,0,0,0-.8-1.2-1.5-2.3-2.3-3.5-.2-.3-.4-.5-.5-.8-.4-.6-.8-1.1-1.1-1.7-.4-.6-.8-1.1-1.1-1.7-.5-.8-1.1-1.5-1.6-2.3-1.1-1.5-2.2-3.1-3.3-4.6-.6-.8-1.1-1.5-1.7-2.3-.8-1.1-1.6-2.1-2.4-3.1-.7-.9-1.5-1.9-2.2-2.8-.6-.7-1.1-1.4-1.7-2.1,0,0,0,0,0-.1-.6-.7-1.1-1.3-1.7-2-1.2-1.5-2.5-3-3.8-4.4-.9-1.1-1.9-2.1-2.9-3.2-.3-.3-.6-.6-.9-.9-.6-.7-1.3-1.4-2-2.1,0,0,0-.1-.1-.1-1-1-1.9-2-2.9-3-.7-.7-1.3-1.4-2-2.1-.6-.6-1.2-1.2-1.8-1.8-1.5-1.4-2.9-2.8-4.4-4.2-.9-.8-1.7-1.6-2.6-2.4-.7-.6-1.4-1.2-2.1-1.8-.7-.6-1.4-1.2-2-1.8-.5-.4-1-.9-1.5-1.3-.2-.1-.4-.3-.5-.4-.5-.4-1-.8-1.5-1.3-1-.9-2.1-1.8-3.2-2.6-.2-.2-.4-.3-.6-.5-1.2-1-2.5-2-3.7-3-.3-.3-.7-.5-1-.8-.3-.2-.6-.4-.9-.7-.4-.3-.7-.6-1.1-.8-1-.7-1.9-1.5-2.9-2.2-.6-.4-1.2-.9-1.8-1.3-.6-.4-1.2-.9-1.8-1.3-.1,0-.3-.2-.4-.3-1.2-.8-2.4-1.7-3.6-2.5,0,0,0,0,0,0-.1-.1-.2-.2-.4-.3-.6-.4-1.1-.7-1.7-1.1-.6-.4-1.1-.7-1.7-1.1-.9-.6-1.8-1.2-2.7-1.8-.7-.5-1.5-.9-2.2-1.4-.2-.1-.3-.2-.5-.3-.3-.2-.7-.4-1-.6-1-.6-2-1.2-3.1-1.8-.7-.4-1.4-.8-2.1-1.2-.9-.5-1.8-1-2.7-1.5,0,0,0,0-.1,0-.2-.1-.4-.2-.5-.3,0,0,0,0-.1,0-1.4-.8-2.9-1.6-4.3-2.3,0,0-.1,0-.2-.1-.2-.1-.4-.2-.6-.3-1.6-.9-3.3-1.7-4.9-2.5-.5-.2-1-.5-1.5-.7-1.3-.6-2.7-1.3-4-1.9-.1,0-.3-.1-.4-.2-.9-.4-1.8-.8-2.7-1.3-1.1-.5-2.2-1-3.2-1.4-1.4-.6-2.9-1.2-4.3-1.8-1.4-.6-2.7-1.1-4.1-1.6-.6-.3-1.2-.5-1.9-.7-1-.4-2-.8-3-1.1-.9-.3-1.8-.6-2.7-.9-1-.4-2-.7-3.1-1.1-.7-.2-1.4-.5-2-.7-.9-.3-1.8-.6-2.7-.9-.9-.3-1.7-.6-2.6-.8-1.3-.4-2.7-.8-4-1.2-.2,0-.4-.1-.7-.2,0,0,0,0-.1,0,0,0-.2,0-.3,0-.7-.2-1.4-.4-2.1-.6-.5-.2-1.1-.3-1.6-.4-.4-.1-.8-.2-1.3-.3-.2,0-.4-.1-.6-.2-1.5-.4-3.1-.8-4.6-1.2-.6-.1-1.2-.3-1.8-.4,0,0,0,0-.1,0-1.1-.3-2.2-.5-3.3-.7,0,0,0,0-.1,0-.2,0-.5,0-.7-.1-.9-.2-1.8-.4-2.6-.6-.7-.1-1.3-.3-2-.4-1.7-.3-3.5-.7-5.2-.9-.1,0-.3,0-.4,0-.1,0-.3,0-.4,0-1.3-.2-2.7-.4-4-.6-.3,0-.7-.1-1-.1-.7-.1-1.4-.2-2.1-.3-.2,0-.3,0-.5,0-.3,0-.6,0-.8-.1-.5,0-.9-.1-1.4-.2-.3,0-.5,0-.7,0,0,0,0,0,0,0-.5,0-1-.1-1.5-.2-1.4-.2-2.9-.4-4.3-.5-.7,0-1.4-.1-2.1-.2-.4,0-.9,0-1.3-.1-1,0-2-.2-3-.3-.9,0-1.9-.1-2.9-.2-.6,0-1.3,0-2-.1-.6,0-1.2,0-1.8-.1-.2,0-.4,0-.5,0-.8,0-1.6,0-2.4-.1-.1,0-.2,0-.3,0-1.6,0-3.1-.1-4.7-.1-.6,0-1.2,0-1.8,0h0c-.6,0-1.3,0-1.9,0h-2.7c-.4,0-.9,0-1.4,0-.2,0-.4,0-.6,0-.7,0-1.4,0-2.2,0-.3,0-.6,0-.9,0-.6,0-1.2,0-1.8,0-.9,0-1.8,0-2.7.1-.9,0-1.8,0-2.7.1-1.8,0-3.6.2-5.3.3-.4,0-.8,0-1.2,0-1.4,0-2.8.2-4.1.4-.9,0-1.7.2-2.6.3-.9,0-1.8.2-2.7.3-1.8.2-3.5.4-5.3.7-.2,0-.4,0-.6,0-.6,0-1.3.2-2,.3-.6,0-1.2.2-1.8.3-.6,0-1.2.2-1.8.3,0,0-.2,0-.3,0-.4,0-.9.1-1.3.2-.2,0-.3,0-.5,0-.5,0-.9.2-1.4.2-.3,0-.5,0-.7.1-1.5.3-2.9.5-4.3.8-.3,0-.6.1-.8.2-.2,0-.5.1-.7.1-.8.2-1.6.3-2.5.5-.4.1-.8.2-1.2.3-.7.1-1.3.3-2,.4-.4,0-.9.2-1.3.3-1.1.3-2.1.5-3.2.8-1.1.3-2.1.5-3.1.8-.8.2-1.6.4-2.3.6-1.5.4-3,.8-4.5,1.3-.8.2-1.6.5-2.5.7-1,.3-2.1.6-3.1,1-1,.3-2,.7-3.1,1-.8.3-1.6.5-2.4.8-1.4.5-2.8,1-4.2,1.5-1,.4-2,.8-3.1,1.1-.1,0-.3,0-.4.2-4.3,1.6-8.5,3.3-12.6,5.2-1.1.5-2.1.9-3.2,1.4-.9.4-1.8.8-2.7,1.3-.3.1-.5.2-.7.4-.6.3-1.1.5-1.7.8-.8.4-1.6.8-2.4,1.2-.7.3-1.3.7-2,1-.2,0-.3.2-.5.2-.7.3-1.3.7-2,1-.7.3-1.3.7-2,1.1-.6.3-1.3.7-1.9,1-.9.5-1.7.9-2.5,1.4-1.2.7-2.4,1.4-3.6,2-.3.2-.6.4-.9.5-1.1.7-2.2,1.3-3.3,2,0,0-.2,0-.3.2-1.3.8-2.6,1.6-3.9,2.4-.1,0-.2.1-.3.2-1.1.7-2.2,1.4-3.3,2.1-.2.2-.5.3-.7.5-1.2.8-2.4,1.6-3.6,2.5-1.5,1-3,2.1-4.4,3.1,0,0,0,0,0,0,0,0,0,0,0,0-1.1.8-2.2,1.6-3.3,2.5-.4.3-.8.6-1.2.9,0,0,0,0-.1,0-.4.3-.7.5-1.1.8h0s0-.1,0-.1c-5.9,4.4-11.6,9.2-16.8,14.3,0,0,0,0-.1.1,0,0,0,0,0,0,0,0,0,0-.1.1C31.4,112.9,0,179.1,0,252.7s26.6,129.2,70,174.5c.6.7,1.3,1.3,1.9,2,.5.5.9,1,1.4,1.4,1,1,2.1,2.1,3.1,3.1.6.6,1.3,1.3,1.9,1.9.7.7,1.5,1.4,2.2,2.1,3,2.8,6,5.4,9.1,8,.5.5,1.1.9,1.6,1.4,1.8,1.5,3.6,3,5.4,4.4.6.5,1.2.9,1.8,1.4,1.1.9,2.3,1.8,3.4,2.6.6.5,1.3,1,1.9,1.4,0,0,.1.1.2.2.8.6,1.5,1.1,2.3,1.7.8.6,1.7,1.2,2.5,1.8,1.5,1,2.9,2,4.4,3,7.8,5.2,15.9,9.9,24.3,14.2.8.4,1.7.9,2.5,1.3,0,0,.1,0,.2,0,.9.4,1.8.9,2.6,1.3.5.2.9.4,1.4.7.5.2,1,.5,1.5.7,1,.5,2,.9,3,1.4.1,0,.3.1.4.2.3.1.5.2.8.3.8.3,1.6.7,2.4,1.1.3.1.7.3,1,.4.7.3,1.4.6,2,.9.7.3,1.4.6,2,.8,1,.4,2,.8,3,1.2,1.1.4,2.2.9,3.4,1.3,1,.4,2,.8,3,1.1,1.1.4,2.3.8,3.4,1.2.8.3,1.7.6,2.5.9,1.1.4,2.2.7,3.3,1.1,1,.3,2.1.6,3.1.9.5.2,1.1.3,1.6.5.5.2,1.1.3,1.6.5.5.2,1.1.3,1.6.5s1.1.3,1.6.4c1.1.3,2.1.6,3.2.9,1,.3,2,.5,2.9.8,0,0,.1,0,.2,0,2,.5,4,.9,5.9,1.4.3,0,.6.1.9.2,1.5.3,3,.6,4.4.9.6.1,1.3.3,1.9.4.4,0,.8.1,1.2.2.7.1,1.4.3,2.2.4,1.1.2,2.2.4,3.3.6,1.9.3,3.9.6,5.8.9.4,0,.8.1,1.2.2,2.8.4,5.6.7,8.5,1,.2,0,.4,0,.5,0,1.3.1,2.6.3,4,.4.3,0,.7,0,1,0,.4,0,.8,0,1.2,0,1.3.1,2.5.2,3.7.3.6,0,1.3,0,1.9.1,0,0,0,0,0,0,.6,0,1.1,0,1.7,0,0,0,0,0,.1,0,.9,0,1.8,0,2.8.1.8,0,1.7,0,2.5,0,.3,0,.6,0,.9,0,.7,0,1.4,0,2.1,0,.9,0,1.9,0,2.8,0,19.6,0,38.7-2.2,57.1-6.5,3.1-.7,6.1-1.5,9.1-2.3,2-.5,4-1.1,6-1.7h0c2-.6,4-1.2,5.9-1.8,2-.6,3.9-1.3,5.9-2,1.9-.7,3.9-1.4,5.8-2.1h0c1.4-.6,2.9-1.1,4.3-1.7s2.8-1.2,4.3-1.8c2.8-1.2,5.6-2.4,8.4-3.7,1.8-.9,3.7-1.8,5.5-2.7,2.7-1.4,5.5-2.8,8.2-4.2,1.8-1,3.6-2,5.3-3,1.8-1,3.5-2,5.3-3.1,1.7-1.1,3.5-2.1,5.2-3.2h0c1.7-1.1,3.4-2.2,5.1-3.4h0c1.7-1.1,3.3-2.3,5-3.5,3.3-2.3,6.6-4.8,9.7-7.3,1.6-1.3,3.2-2.5,4.7-3.8.8-.6,1.6-1.3,2.3-2,1.5-1.3,3.1-2.6,4.6-4,3.8-3.3,7.5-6.8,11-10.4.7-.7,1.4-1.4,2.1-2.2.7-.7,1.4-1.5,2.1-2.2,1.1-1.1,2.1-2.2,3.1-3.4.3-.3.7-.7,1-1.1.7-.7,1.4-1.5,2-2.3.9-1,1.7-2,2.6-2.9.3-.4.6-.7.9-1.1.8-1,1.6-1.9,2.4-2.9,1-1.2,1.9-2.3,2.9-3.5.7-.9,1.5-1.9,2.2-2.8,9.1-11.7,17.1-24.2,24-37.5.5-.9,1-1.9,1.5-2.8.1-.3.3-.6.4-.9.6-1.2,1.2-2.4,1.8-3.7.9-1.8,1.7-3.7,2.6-5.6.4-.9.8-1.9,1.3-2.8.8-1.9,1.6-3.8,2.4-5.7,1.6-3.8,3-7.7,4.4-11.5.3-1,.7-1.9,1-2.9.6-1.7,1.2-3.5,1.7-5.3.1-.5.3-.9.4-1.4.2-.7.4-1.5.7-2.2.3-.9.5-1.8.8-2.8,0-.2.1-.4.2-.7.2-.8.5-1.7.7-2.5.3-1,.5-1.9.8-2.9,0-.1,0-.3.1-.4.2-.7.4-1.5.6-2.2.3-1.3.7-2.7,1-4,.2-.9.4-1.7.6-2.6.2-1,.4-2,.6-3.1.2-.8.3-1.6.5-2.5.3-1.4.5-2.8.8-4.1.2-.9.3-1.8.4-2.6,0,0,0,0,0-.1.1-.8.3-1.6.4-2.5,0-.3.1-.7.2-1,0-.6.2-1.3.3-1.9.4-2.4.7-4.8.9-7.3.1-1,.2-1.9.3-2.9,0,0,0-.2,0-.2,0-.9.2-1.9.3-2.8,0-.1,0-.3,0-.4,0-1,.2-2.1.3-3.1,0-.9.1-1.8.2-2.7.2-3.4.4-6.8.5-10.2,0-.8,0-1.7,0-2.5,0-1.3,0-2.7,0-4s0-2.4,0-3.6ZM83.4,65.1c0,0,.1-.1.2-.2.5-.5,1-.9,1.6-1.4-.6.5-1.2,1.1-1.8,1.6ZM369.6,227.6c-2.3,7-5.2,13.6-8.7,20-2.6,4.8-5.5,9.4-8.7,13.8l-99.5,178.4-93.5-167.8-5.9-10.6c-14.9-20.4-23.7-45.5-23.7-72.7s15.7-68.8,40.6-91.4c7.1-6.5,15-12.1,23.6-16.7,17.5-9.6,37.6-15,59-15,38.3,0,72.6,17.5,95.2,45,17.5,21.3,28,48.5,28,78.2s-2.2,26.7-6.3,38.9Z"/>
  </g>
  <g>
    <path class="cls-1" d="M1649.4,704.6c-6,0-11.6,1.4-16.8,4.1-9.3,4.9-17.4,14.2-24.2,27.9-7.5,15.2-12.3,33.7-14.5,55.4-.9,8.7-1.3,17.9-1.3,27.7s.4,14.2,1.2,20.4c1.4,10.9,4.1,20,8.1,27.3,6.2,11.5,14.8,17.2,25.9,17.2s24.5-6.8,33.5-20.4c8.7-13,14.6-31.2,17.7-54.4.1-.9.2-1.9.4-2.9l4.7-41.3c.2-1.1.3-2.9.3-5.5,0-16.8-3.2-30.3-9.6-40.3-6.4-10.1-14.8-15.1-25.4-15.1ZM1672.4,727.3c-3.9-3.5-7.7-5.3-11.4-5.3-6.5,0-12.5,2-17.9,6.1-6.2,4.7-11.6,12-16.2,22-5.4,11.7-9.2,25.6-11.2,41.8-1.2,9.7-1.8,20.2-1.8,31.5s.1,9.4.4,13.6c1.5,22.2,7,36.2,16.5,42.1l-.3,1.7c-12.8-3.5-20.4-17.6-22.8-42.3-.5-5.6-.8-11.7-.8-18.3,0-10,.5-19.4,1.6-28.2,2.2-18.3,6.7-33.9,13.4-46.8,5.3-10.1,11.4-17.5,18.3-22.3,6.2-4.3,13.1-6.4,20.7-6.4s9.6,3.1,13.3,9.2l-1.9,1.7Z"/>
    <path class="cls-1" d="M1907.1,811.9c0-.2,0-.4,0-.6,0-1,0-2.1,0-3.1,0-.5,0-1.1,0-1.6,0-.5,0-1,0-1.6,0-.5,0-1,0-1.6,0-.4,0-.7,0-1.1,0-.6,0-1.2,0-1.7,0-.4,0-.7,0-1.1,0-.6,0-1.3-.1-1.9,0-.8,0-1.5-.2-2.3,0-1.1-.2-2.1-.3-3.1,0-1.1-.2-2.1-.3-3.2-.1-1.2-.3-2.4-.4-3.6-.1-.9-.2-1.9-.3-2.8-.2-1.8-.5-3.7-.8-5.5-.1-.9-.3-1.9-.4-2.8-.1-.8-.3-1.7-.4-2.5-.1-.8-.3-1.6-.4-2.3,0-.1,0-.2,0-.3-.2-1-.4-2.1-.6-3.1,0-.4-.1-.8-.2-1.2-.2-1.1-.4-2.1-.7-3.2-.1-.7-.3-1.3-.4-2-1-4.6-2.1-9.1-3.4-13.5,0-.2-.1-.4-.2-.7-1.5-5.3-3.2-10.6-5.1-15.8,0-.1,0-.2-.1-.3,0-.3-.2-.5-.3-.8-.2-.6-.5-1.3-.7-1.9-.3-.7-.5-1.4-.8-2.1-.3-.8-.6-1.5-.9-2.3-.2-.5-.4-.9-.6-1.4-.3-.7-.6-1.5-.9-2.2-1-2.4-2-4.8-3.1-7.1-1.2-2.6-2.4-5.3-3.7-7.8-1.1-2.3-2.3-4.6-3.5-6.8,0-.2-.2-.4-.3-.5-.2-.3-.4-.7-.5-1-.7-1.3-1.4-2.7-2.2-4-.8-1.4-1.5-2.7-2.3-4-.8-1.3-1.6-2.7-2.4-4-.8-1.3-1.6-2.6-2.4-3.9,0,0,0,0,0,0-.8-1.2-1.5-2.3-2.3-3.5-.2-.3-.4-.5-.5-.8-.4-.6-.8-1.1-1.1-1.7-.4-.6-.8-1.1-1.1-1.7-.5-.8-1.1-1.5-1.6-2.3-1.1-1.5-2.2-3.1-3.3-4.6-.6-.8-1.1-1.5-1.7-2.3-.8-1-1.6-2.1-2.4-3.1-.7-.9-1.5-1.9-2.2-2.8-.6-.7-1.1-1.4-1.7-2.1,0,0,0,0,0-.1-.6-.7-1.1-1.3-1.7-2-1.2-1.5-2.5-3-3.8-4.4-.9-1.1-1.9-2.1-2.9-3.2-.3-.3-.6-.6-.9-1-.7-.7-1.3-1.4-2-2.1,0,0,0,0-.1-.1-1-1-1.9-2-2.9-3-.7-.7-1.3-1.4-2-2.1-.6-.6-1.2-1.2-1.8-1.8-1.5-1.4-2.9-2.8-4.4-4.2-.8-.8-1.7-1.6-2.6-2.4-.7-.6-1.4-1.2-2.1-1.8-.7-.6-1.4-1.2-2-1.8-.5-.4-1-.9-1.5-1.3-.2-.1-.4-.3-.5-.5-.5-.4-1-.8-1.5-1.3-1-.9-2.1-1.8-3.2-2.6-.2-.2-.4-.3-.6-.5-1.2-1-2.5-2-3.7-3-.3-.3-.7-.5-1-.8-.3-.2-.6-.4-.9-.7-.4-.3-.7-.6-1.1-.8-1-.7-1.9-1.5-2.9-2.2-.6-.4-1.2-.9-1.8-1.3-.6-.4-1.2-.9-1.8-1.3-.1,0-.3-.2-.4-.3-1.2-.8-2.4-1.7-3.6-2.5,0,0,0,0,0,0-.1,0-.2-.2-.4-.2-.6-.4-1.1-.7-1.7-1.1-.6-.4-1.1-.7-1.7-1.1-.9-.6-1.8-1.2-2.7-1.8-.7-.5-1.5-.9-2.2-1.4-.2-.1-.3-.2-.5-.3-.3-.2-.7-.4-1-.6-1-.6-2-1.2-3.1-1.8-.7-.4-1.4-.8-2.1-1.2-.9-.5-1.8-1-2.8-1.5,0,0,0,0-.1,0-.2,0-.4-.2-.5-.3s0,0-.1,0c-1.4-.8-2.9-1.6-4.3-2.3,0,0-.1,0-.2-.1-.2-.1-.4-.2-.6-.3-1.6-.9-3.3-1.7-4.9-2.5-.5-.2-1-.5-1.5-.7-1.3-.6-2.7-1.3-4-1.9-.1,0-.3-.1-.4-.2-.9-.4-1.8-.8-2.7-1.3-1.1-.5-2.2-1-3.2-1.4-1.4-.6-2.9-1.2-4.3-1.8-1.4-.6-2.7-1.1-4.1-1.7-.6-.2-1.2-.5-1.9-.7-1-.4-2-.8-3-1.1-.9-.3-1.8-.6-2.7-.9-1-.4-2-.7-3.1-1.1-.7-.2-1.4-.5-2.1-.7-.9-.3-1.8-.6-2.6-.9-.9-.3-1.7-.6-2.6-.8-1.3-.4-2.7-.8-4-1.2-.2,0-.4-.1-.7-.2,0,0,0,0-.1,0,0,0-.2,0-.3,0-.7-.2-1.4-.4-2.1-.6-.5-.1-1.1-.3-1.6-.4-.4-.1-.8-.2-1.3-.3-.2,0-.4-.1-.6-.2-1.5-.4-3.1-.8-4.6-1.2-.6-.1-1.2-.3-1.8-.4,0,0,0,0-.1,0-1.1-.2-2.2-.5-3.3-.7,0,0,0,0-.1,0-.2,0-.5,0-.7-.1-.9-.2-1.8-.4-2.6-.6-.7-.1-1.3-.3-2-.4-1.7-.3-3.5-.7-5.2-.9-.1,0-.3,0-.4,0-.1,0-.3,0-.4,0-1.3-.2-2.7-.4-4-.7-.3,0-.7,0-1-.1-.7-.1-1.4-.2-2.1-.3-.2,0-.3,0-.5,0-.3,0-.6,0-.8-.1-.5,0-.9-.1-1.4-.2-.2,0-.5,0-.7,0,0,0,0,0,0,0-.5,0-1-.1-1.5-.2-1.4-.2-2.9-.4-4.3-.5-.7,0-1.4-.1-2.1-.2-.4,0-.9,0-1.3-.1-1,0-2-.2-3-.3-.9,0-1.9-.1-2.9-.2-.6,0-1.3,0-2-.1-.6,0-1.2,0-1.8-.1-.2,0-.4,0-.5,0-.8,0-1.6,0-2.4-.1,0,0-.2,0-.3,0-1.6,0-3.1,0-4.7-.1-.6,0-1.2,0-1.8,0h0c-.6,0-1.3,0-1.9,0h-2.7c-.4,0-.9,0-1.4,0-.2,0-.4,0-.6,0-.7,0-1.4,0-2.2,0-.3,0-.6,0-.9,0-.6,0-1.2,0-1.8,0-.9,0-1.8,0-2.7.1-.9,0-1.8,0-2.7.1-1.8,0-3.6.2-5.3.3-.4,0-.8,0-1.2,0-1.4,0-2.8.2-4.1.4-.9,0-1.7.1-2.6.2-.9,0-1.8.2-2.7.3-1.8.2-3.5.4-5.3.7-.2,0-.4,0-.7,0-.6,0-1.3.2-2,.3-.6,0-1.2.2-1.8.3-.6,0-1.2.2-1.8.3,0,0-.2,0-.3,0-.4,0-.9.1-1.3.2-.2,0-.3,0-.5,0-.5,0-.9.2-1.4.2-.2,0-.5,0-.7.1-1.5.3-2.9.5-4.3.8-.3,0-.6,0-.8.2-.2,0-.5,0-.7.1-.8.2-1.6.3-2.4.5-.4.1-.8.2-1.2.3-.7.1-1.3.3-2,.4-.4,0-.9.2-1.3.3-1.1.2-2.1.5-3.2.8-1,.3-2.1.5-3.1.8-.8.2-1.6.4-2.3.6-1.5.4-3,.8-4.5,1.3-.8.2-1.6.5-2.5.7-1,.3-2.1.6-3.1,1-1,.3-2.1.7-3.1,1-.8.3-1.6.5-2.4.8-1.4.5-2.8,1-4.2,1.5-1,.4-2,.8-3.1,1.1-.1,0-.3,0-.4.2-4.3,1.6-8.4,3.3-12.6,5.2-1.1.5-2.1,1-3.2,1.4-.9.4-1.8.8-2.7,1.3-.2.1-.5.2-.7.4-.6.3-1.1.5-1.7.8-.8.4-1.6.8-2.4,1.2-.7.3-1.3.7-2,1-.2,0-.3.2-.5.2-.7.3-1.3.7-2,1-.7.3-1.3.7-2,1.1-.6.3-1.3.7-1.9,1-.9.5-1.7.9-2.5,1.4-1.2.7-2.4,1.4-3.6,2-.3.2-.6.4-.9.5-1.1.7-2.2,1.3-3.3,2,0,0-.2,0-.3.2-1.3.8-2.6,1.6-3.9,2.4,0,0-.2.1-.3.2-1.1.7-2.2,1.4-3.3,2.1-.2.2-.5.3-.7.5-1.2.8-2.4,1.6-3.6,2.5-1.5,1-3,2.1-4.4,3.1,0,0,0,0,0,0,0,0,0,0,0,0-1.1.8-2.2,1.6-3.3,2.5-.4.3-.8.6-1.2.9,0,0,0,0,0,0-.4.3-.7.5-1.1.8h0s0-.1,0-.1c-5.9,4.4-11.6,9.2-16.8,14.3,0,0,0,0-.1.1,0,0,0,0,0,0,0,0,0,0-.1,0-6.3,5.8-12.4,12-18.1,18.5-39.5,44.6-63.4,103.2-63.4,167.5s25.7,127.1,67.8,172.2c.7.8,1.5,1.6,2.2,2.3.6.7,1.3,1.3,1.9,2,.5.5.9,1,1.4,1.4,1,1,2.1,2.1,3.1,3.1.6.6,1.3,1.3,1.9,1.9.7.7,1.5,1.4,2.2,2.1,3,2.8,6,5.4,9.1,8.1.5.5,1.1.9,1.6,1.4,1.8,1.5,3.6,3,5.4,4.4.6.5,1.2.9,1.8,1.4,1.1.9,2.3,1.8,3.4,2.6.6.5,1.3,1,1.9,1.4,0,0,.1.1.2.2.8.6,1.5,1.1,2.3,1.7.8.6,1.7,1.2,2.5,1.8,1.5,1,2.9,2,4.4,3,7.8,5.2,15.9,9.9,24.3,14.2.8.4,1.7.9,2.5,1.3,0,0,.1,0,.2,0,.9.4,1.8.9,2.6,1.3.5.2.9.4,1.4.7.5.2,1,.5,1.5.7,1,.5,2,.9,3,1.4.1,0,.3.1.4.2.3.1.5.2.8.3.8.3,1.6.7,2.4,1,.3.1.7.3,1,.4.7.3,1.4.6,2.1.9.7.3,1.4.6,2,.8,1,.4,2,.8,3,1.2,1.1.4,2.3.9,3.4,1.3,1,.4,2,.8,3.1,1.1,1.1.4,2.3.8,3.4,1.2.8.3,1.7.6,2.5.9,1.1.4,2.2.7,3.3,1.1,1,.3,2.1.7,3.1,1,.5.2,1.1.3,1.6.5.5.2,1.1.3,1.6.5.5.2,1.1.3,1.6.5.5.1,1.1.3,1.6.4,1.1.3,2.1.6,3.2.9,1,.2,2,.5,3,.8,0,0,0,0,.2,0,2,.5,4,.9,5.9,1.4.3,0,.6.1.9.2,1.5.3,3,.6,4.4.9.6.1,1.3.3,1.9.4.4,0,.8.1,1.2.2.7.1,1.4.3,2.2.4,1.1.2,2.2.4,3.3.6,1.9.3,3.8.6,5.8.9.4,0,.8.1,1.2.2,2.8.4,5.6.7,8.5,1,.2,0,.4,0,.5,0,1.3.1,2.6.2,4,.4.3,0,.7,0,1,0,.4,0,.8,0,1.2,0,1.3,0,2.5.2,3.8.2.6,0,1.3,0,1.9,0,0,0,0,0,0,0,.6,0,1.1,0,1.7,0,0,0,0,0,.1,0,.9,0,1.9,0,2.8,0,.8,0,1.7,0,2.5,0,.3,0,.6,0,.9,0,.7,0,1.4,0,2.1,0,.9,0,1.9,0,2.8,0,19.6,0,38.7-2.2,57.1-6.5,3.1-.7,6.1-1.5,9.1-2.3,2-.5,4-1.1,6-1.7h0c2-.6,4-1.2,5.9-1.8,2-.6,3.9-1.3,5.9-2,1.9-.7,3.9-1.4,5.8-2.1h0c1.4-.6,2.9-1.1,4.3-1.7,1.4-.6,2.9-1.2,4.3-1.8,2.8-1.2,5.6-2.4,8.4-3.8,1.8-.9,3.7-1.7,5.5-2.7,2.8-1.4,5.5-2.8,8.2-4.2,1.8-1,3.6-2,5.3-3,1.8-1,3.5-2,5.3-3.1,1.7-1.1,3.5-2.1,5.2-3.2h0c1.7-1.1,3.4-2.2,5.1-3.3h0c1.7-1.1,3.3-2.3,5-3.5,3.3-2.3,6.6-4.8,9.7-7.3,1.6-1.3,3.2-2.5,4.7-3.8.8-.6,1.6-1.3,2.3-1.9,1.5-1.3,3.1-2.6,4.6-4,3.8-3.3,7.5-6.8,11-10.4.7-.7,1.4-1.4,2.1-2.2.7-.7,1.4-1.5,2.1-2.2,1.1-1.1,2.1-2.2,3.1-3.4.3-.3.7-.7,1-1.1.7-.7,1.4-1.5,2-2.3.9-1,1.7-2,2.6-2.9.3-.4.6-.7.9-1.1.8-1,1.6-1.9,2.4-2.9,1-1.2,1.9-2.3,2.9-3.5.7-.9,1.5-1.9,2.2-2.8,9.1-11.7,17.1-24.3,24-37.5.5-.9,1-1.9,1.5-2.8.1-.3.3-.6.4-.9.6-1.2,1.2-2.4,1.8-3.7.9-1.8,1.7-3.7,2.6-5.6.4-.9.8-1.9,1.3-2.8.8-1.9,1.6-3.8,2.4-5.7,1.6-3.8,3-7.6,4.4-11.5.3-1,.7-1.9,1-2.9.6-1.7,1.2-3.5,1.7-5.3.1-.5.3-.9.4-1.4.2-.7.4-1.5.7-2.2.3-.9.5-1.8.8-2.8,0-.2.1-.5.2-.7.2-.8.5-1.7.7-2.5.3-1,.5-1.9.8-2.9,0-.1,0-.3,0-.4.2-.8.4-1.5.6-2.2.3-1.3.7-2.7,1-4,.2-.9.4-1.7.6-2.6.2-1,.4-2.1.7-3.1.2-.8.3-1.6.5-2.5.3-1.4.5-2.8.8-4.1.2-.9.3-1.7.5-2.6,0,0,0,0,0-.1.1-.8.3-1.6.4-2.4,0-.3.1-.7.2-1,0-.6.2-1.3.3-1.9.4-2.4.7-4.8.9-7.3.1-1,.2-1.9.3-2.9,0,0,0,0,0-.1,0,0,0,0,0-.1,0-.9.2-1.9.3-2.8,0-.1,0-.3,0-.4,0-.5,0-1,.1-1.5,0-.5,0-1,.1-1.5,0,0,0-.2,0-.3,0,0,0,0,0-.1,0-.9.1-1.7.2-2.6,0-.7,0-1.5.1-2.2,0-.8,0-1.5.1-2.2,0-.7,0-1.4,0-2.1,0-2.1.1-4.3.2-6.4,0-1.2,0-2.3,0-3.5s0-2,0-3.1ZM1517.9,937.6c-5.8-5.8-11-11.8-15.7-18.1-18.1-24.4-27.8-52-32.9-76.6-8.1-38.9-4.7-70.5-4.7-70.5,5.7-33.1,20-62.1,42.8-87.2,8.4-9.3,18-18,28.8-26.1,4.6-3.5,9.4-6.8,14.1-9.9,30.4-19.5,63.1-29.2,98.1-29.2s87.3,14.1,119,42.3c3.3,2.9,6.4,5.9,9.3,8.9,25.5,26.6,38.2,58.7,38.2,96.5s-9.5,64.5-28.4,90.5c-15.7,21.5-33.5,34.1-53.5,37.8-4.1.8-8.3,1.1-12.6,1.1-24.6,0-37.8-12.7-39.6-38-15.9,26.6-36,39.9-60.4,39.9s-37.9-7.9-50.4-23.6c-9.2-11.5-15-25.8-17.5-42.9-.9-6.3-1.4-13-1.4-20,0-10.2.9-20,2.8-29.3h0c4.3-21.4,13.4-40.5,27.4-57.2,12.9-15.3,27.4-25.8,43.5-31.3h0c9.2-3.1,18.8-4.7,29.1-4.7s24.2,2.8,38.2,8.3c7.4,3,13.3,4.4,17.7,4.4s11.1-1.5,15.5-4.4l3.6,2.5-13.9,108.7-.5,4.1-2.5,24.4c-.6,5.7-.8,10-.8,12.7,0,7,1.7,12.8,5.1,17.2,3.4,4.4,7.8,6.7,13.2,6.7s5-.5,8.9-1.4c-8.5-6.1-12.8-15-12.8-26.6s.5-7.8,1.4-15.3l2.7-21.8,13-103.7,6.4,7.5-12.1,96.3-2.8,22.6c-.7,5.7-1.1,10.1-1.1,13,0,11.1,3.2,19.9,9.7,26.3,2.1-1.1,4.2-2.3,6.2-3.6,11.7-7.7,21.3-19.7,28.6-35.8,8.6-18.8,12.9-40.6,12.9-65.1,0-35.7-13.3-66.1-39.9-91.2-1.7-1.6-3.5-3.3-5.3-4.8-25.5-22-56-32.9-91.4-32.9s-27.7,1.8-40.6,5.3c-26.9,7.4-50.8,22.6-71.9,45.5-23.4,25.4-38,54.7-43.9,87.8-2,11.1-2.9,22.6-2.9,34.5,0,17.1,2.2,33.2,6.5,48.2,4.1,14.3,10.2,27.6,18.3,39.9,5.4,8.2,11.6,16,18.7,23.3,29,29.9,65,44.9,108.1,44.9s33.9-2.5,50-7.4c19-5.8,37.2-15,54.7-27.5,5.2-3.7,9.8-5.7,13.9-6.1,4.1-.4,6,1.4,5.8,5.3-.2,6.1-6.6,13.3-19.1,21.6-20.6,13.8-43.1,23.1-67.5,28.1-13.5,2.7-27.6,4.1-42.3,4.1-48.5,0-89.8-16.1-124-48.3ZM1520.8,850.7c2,10.7,5.1,20.9,9.3,30.5,2.3,5.3,4.9,10.4,7.8,15.3,13.2,22.4,31.4,39,54.7,49.7l-2.5,3.1c-30-14.3-51.6-34.3-64.6-60-5.9-11.7-10.1-24.5-12.6-38.5-1.7-9.9-2.6-20.4-2.6-31.4s.3-12.6.8-18.6c3.2-36.7,16-68.3,38.4-94.7h0c1.6-1.9,3.2-3.7,4.8-5.5,3.8-4.1,7.7-7.9,11.8-11.5,21.4-18.9,46.3-30.4,74.5-34.4,7.7-1.1,15.6-1.6,23.7-1.6,29.4,0,50.6,5.8,63.7,17.5l-5.8-1.7c-21.3-5.7-40.7-8.6-58.2-8.6s-9.5.2-14.2.6c-27.3,2.4-51.4,11.8-72.2,28.2-6.3,5-12.3,10.5-18,16.8-11,12-19.8,25.2-26.4,39.5-8.9,19.2-13.9,40.4-15,63.8-.2,3.4-.3,6.9-.3,10.4,0,10.8.9,21.1,2.8,31ZM1733.9,995.7c-19.8,7.7-41.6,12.2-65.4,13.6-5.2.3-10.4.4-15.8.4-21.8,0-40.1-2.7-55-8.2-14.9-5.5-29.6-14.9-44.2-28.4v-1.9c24,21.1,57.1,31.6,99.2,31.6s13.5-.2,19.9-.7c20.2-1.5,38.2-5.3,54-11.4,20.8-8,39.9-20.9,57.2-38.7l5,4.4c-12.6,16.8-30.9,29.9-54.9,39.2ZM1807.8,877c-22.6,30.5-48.9,45.7-78.9,45.7s-7-.3-10.4-1c-14.4-2.8-26.3-11.7-35.9-26.7-18.9,17.9-37.9,26.9-57.1,26.9s-31.6-7-43.8-21.1v-1.1c11.5,10.4,26.2,15.5,44.3,15.5s33.8-7.9,50.4-23.8l4.2-4.1c11,17,25,26.2,42,27.3,1.2,0,2.5.1,3.8.1,28.4,0,53.4-14.4,74.7-43.1,21.3-28.7,32-62.3,32-100.7s-7.7-58.5-23.1-81.8c-4.2-6.3-8.9-12.3-14.1-17.8-13.9-14.8-31.4-26.7-52.6-35.7l.6-3.3c24.6,8.6,44.8,21.6,60.8,39,4,4.3,7.7,8.9,11.1,13.8,17.3,24.5,25.9,53.1,25.9,85.8s-11.3,75.7-33.9,106.1Z"/>
  </g>
</svg>