<?xml version="1.0" encoding="UTF-8"?>
<svg id="Layer_1" data-name="Layer 1" xmlns="http://www.w3.org/2000/svg" viewBox="0 0 450.1 484.2">
  <defs>
    <style>
      .cls-1 {
        fill: #9f2a35;
      }
    </style>
  </defs>
  <path class="cls-1" d="M450.1,239.2c0-1.2,0-2.3,0-3.5,0-1,0-2,0-3,0-1.6-.1-3.2-.2-4.8,0-.2,0-.4,0-.6,0-.5,0-1.1,0-1.7-.3-4-.6-7.8-1.1-11.7,0-.9-.2-1.8-.3-2.7-.1-1-.2-2-.4-2.9,0,0,0-.2,0-.3,0-.7-.2-1.4-.3-2.1-.7-5-1.6-10-2.7-14.8-.1-.7-.3-1.3-.4-1.9-.6-2.7-1.3-5.5-2-8.1-.2-.8-.4-1.5-.6-2.3-.1-.3-.2-.7-.3-1.1-.2-.7-.4-1.4-.6-2.1-.4-1.5-.9-3-1.4-4.6-.2-.6-.3-1.2-.5-1.7-.5-1.6-1-3.3-1.6-4.9-.4-1.2-.8-2.4-1.2-3.6,0-.2-.1-.4-.2-.6-.4-1-.7-2-1.1-3-.1-.4-.3-.8-.5-1.2,0-.1,0-.2-.1-.3-.5-1.2-.9-2.4-1.4-3.5-.5-1.4-1.1-2.8-1.7-4.2-.5-1.3-1.1-2.5-1.6-3.8-.1-.2-.2-.5-.3-.7-2.3-5.2-4.8-10.3-7.5-15.3-.1-.2-.2-.4-.3-.6-.6-1.2-1.3-2.3-1.9-3.5,0,0,0-.1,0-.2-.7-1.3-1.5-2.6-2.2-3.9-1.5-2.6-3-5.1-4.6-7.6-.8-1.2-1.6-2.5-2.4-3.7-.8-1.2-1.6-2.4-2.5-3.7-2-3-4.2-5.9-6.3-8.8-1.5-1.9-2.9-3.8-4.4-5.7-2.2-2.8-4.6-5.6-6.9-8.3-.9-1-1.8-2-2.7-3.1,0,0,0,0,0,0-.9-1-1.8-2-2.8-3-.9-1-1.9-2-2.8-3-2.6-2.7-5.2-5.3-7.9-7.8-.3-.3-.6-.5-.9-.8-1.1-1-2.1-2-3.2-2.9-.1-.1-.2-.2-.4-.3-.6-.6-1.3-1.2-1.9-1.7-.5-.4-.9-.8-1.4-1.2-.5-.4-1-.8-1.5-1.3-1-.8-1.9-1.6-2.9-2.4-.8-.7-1.6-1.3-2.4-1.9-.8-.6-1.6-1.3-2.4-1.9-.3-.2-.6-.5-.9-.7-.6-.4-1.1-.9-1.7-1.3-1-.8-2-1.5-3-2.2-.6-.4-1.2-.8-1.7-1.3-.6-.4-1.2-.9-1.8-1.2-.3-.2-.5-.4-.8-.5-1-.7-2.1-1.5-3.1-2.1-.1,0-.2-.2-.3-.2-1-.7-2.1-1.4-3.2-2.1-1.7-1.1-3.5-2.2-5.2-3.3-.7-.4-1.3-.8-2-1.2-.8-.5-1.6-1-2.4-1.5-1-.6-2-1.2-3.1-1.8-.6-.3-1.1-.7-1.7-1-1.5-.8-3-1.6-4.5-2.4-.5-.2-1-.5-1.4-.8-3.1-1.6-6.3-3.2-9.5-4.7-.9-.4-1.7-.8-2.6-1.2h0c-1-.5-2.1-.9-3.1-1.4,0,0,0,0,0,0-1.3-.6-2.5-1.1-3.8-1.6,0,0-.1,0-.2,0-1.3-.5-2.6-1.1-4-1.6-.6-.2-1.2-.5-1.8-.7-.9-.4-1.9-.7-2.9-1.1-.8-.3-1.7-.6-2.6-.9-1-.4-2-.7-2.9-1-.6-.2-1.3-.4-2-.7-.2,0-.3,0-.5-.2-.7-.2-1.3-.4-2-.7-.6-.2-1.2-.4-1.8-.5-.5-.2-1-.3-1.5-.5-1.3-.4-2.5-.8-3.8-1.1-.4-.1-.9-.2-1.3-.4-.6-.2-1.2-.4-1.9-.5-.7-.2-1.4-.4-2.1-.6-.2,0-.4-.1-.6-.2-.1,0-.2,0-.3,0,0,0-.2,0-.3,0-1.2-.3-2.3-.6-3.5-.9-.6-.1-1.1-.3-1.7-.4-1.1-.3-2.3-.5-3.4-.8-.6-.1-1.2-.3-1.9-.4-.9-.2-1.7-.4-2.6-.5-.4,0-.8-.2-1.3-.2-.2,0-.5,0-.8-.1-.2,0-.5,0-.7-.1-1-.2-1.9-.4-2.9-.5-.3,0-.5,0-.8-.1-.6,0-1.2-.2-1.8-.3-.2,0-.3,0-.5,0-.3,0-.6,0-.9-.1-.5,0-.9-.2-1.4-.2-.1,0-.2,0-.3,0-.1,0-.2,0-.3,0-.3,0-.6,0-.9-.1-.4,0-.8-.1-1.2-.2-.5,0-1-.1-1.4-.2-.5,0-1-.1-1.4-.2-1-.1-2-.2-3-.3-.3,0-.7,0-1-.1-.3,0-.7,0-1-.1,0,0-.1,0-.2,0-.3,0-.6,0-.9-.1-1.6-.2-3.2-.3-4.7-.4-1.2,0-2.5-.2-3.7-.3-1.2,0-2.5-.1-3.7-.2-.9,0-1.9,0-2.8-.1-.9,0-1.9,0-2.8,0-1.9,0-3.7,0-5.6-.1h-2.5c-.4,0-.9,0-1.3,0-.9,0-1.7,0-2.6,0-.9,0-1.7,0-2.6,0-3.4.1-6.9.3-10.3.5-.8,0-1.5.1-2.3.2-.1,0-.3,0-.4,0-.8,0-1.6.1-2.4.2-1.7.2-3.4.3-5.1.5-1.7.2-3.4.4-5,.6-.8.1-1.7.2-2.5.4-.8.1-1.7.2-2.5.4-.8.1-1.7.3-2.5.4-.8.1-1.7.3-2.5.4-1.7.3-3.3.6-4.9.9-.8.2-1.6.3-2.4.5-.8.2-1.6.4-2.4.5-.8.2-1.6.4-2.4.6-2,.5-4,1-6,1.5-3,.8-6,1.6-8.9,2.5-1,.3-2,.6-3,.9-2,.6-3.9,1.3-5.9,1.9-8.5,3-16.8,6.4-24.9,10.2-.7.4-1.5.7-2.2,1.1-1.3.6-2.6,1.3-3.8,1.9-.2,0-.3.2-.4.2-1.3.7-2.6,1.3-3.8,2-1.3.7-2.5,1.4-3.8,2.1-.1,0-.2.2-.4.2-1.3.7-2.5,1.4-3.8,2.2-5.2,3.1-10.3,6.3-15.3,9.8-3.3,2.3-6.6,4.7-9.8,7.1-2.1,1.6-4.2,3.3-6.3,5-1.4,1.1-2.8,2.3-4.1,3.5-.7.6-1.3,1.2-2,1.8-.7.6-1.3,1.2-2,1.8-.7.6-1.3,1.2-2,1.8-5.6,5.5-10.8,11.5-15.5,17.9l.8.5,8.2,4.7c6.7,3.9,9.8,11.7,7.9,18.9-.4,1.5-.9,2.9-1.7,4.2-4.7,8.1-15,10.9-23.1,6.2l-8.3-4.8-.8-.5c-5.9,13.6-10,28.2-11.7,43.5h10.5c9.4,0,16.9,7.6,16.9,16.9s-7.6,16.9-16.9,16.9H0c1.8,15.3,5.8,29.9,11.7,43.5l.8-.5,8.3-4.8c8.1-4.7,18.4-1.9,23.1,6.2.8,1.4,1.4,2.8,1.7,4.2,1.8,7.2-1.2,15-7.9,18.8l-8.3,4.8-.8.5c8.9,12.1,19.7,22.9,31.9,31.9l.5-.8,4.7-8.3c4.7-8,15-10.9,23.1-6.2,8.1,4.7,10.9,15,6.2,23.1l-4.8,8.3-.5.8-47.8,83.5-9,15.7c12,12.6,25.3,23.8,39.7,33.6,1.6,1.1,3.2,2.1,4.8,3.2h0c1.6,1,3.3,2.1,4.9,3.1,3.3,2,6.7,3.9,10.1,5.8.8.5,1.7.9,2.6,1.4,0,0,0,0,0,0,1.7.9,3.3,1.7,5,2.6.9.4,1.8.9,2.7,1.3.9.4,1.8.8,2.6,1.3,0,0,0,0,.1,0,.8.4,1.7.8,2.5,1.2.5.2,1,.4,1.5.6.8.3,1.5.7,2.3,1,.3.1.7.3,1,.4,1.3.6,2.6,1.1,3.9,1.6,1,.4,2,.8,2.9,1.2.9.4,1.9.7,2.8,1.1,2.1.8,4.3,1.6,6.5,2.3.8.3,1.7.6,2.5.9,1,.3,2,.7,3,1,1,.3,2,.6,3,.9,1,.3,2,.6,3,.9,1,.3,2,.6,3.1.9,1,.3,2,.6,3.1.8,2,.5,3.9,1,5.9,1.5,2.2.5,4.4,1,6.6,1.4,2.1.4,4.2.8,6.3,1.2,1,.2,2.1.4,3.2.5,1.1.2,2.1.3,3.2.5,1,.2,1.9.3,2.9.4.2,0,.4,0,.6,0,1,.1,1.9.2,2.9.4.8.1,1.5.2,2.3.3.6,0,1.3.1,1.9.2.7,0,1.4.1,2.1.2.1,0,.2,0,.3,0,.8,0,1.5.2,2.2.2.5,0,1.1.1,1.6.1.8,0,1.7.1,2.5.2,1.1,0,2.2.1,3.3.2.9,0,1.7.1,2.6.1,3.5.2,7.1.2,10.7.2,66.8,0,127.4-27.1,171.2-70.9,1.4-1.4,2.7-2.8,4.1-4.2,1.3-1.4,2.6-2.8,4-4.2.7-.7,1.3-1.4,1.9-2.2,1.9-2.2,3.8-4.4,5.7-6.6,1.8-2.2,3.7-4.5,5.4-6.8,2.4-3.1,4.6-6.2,6.9-9.4,1.1-1.6,2.2-3.2,3.3-4.8,2.1-3.2,4.2-6.5,6.2-9.9,1-1.7,2-3.4,2.9-5.1,1-1.7,1.9-3.4,2.8-5.1,1.4-2.6,2.7-5.2,4-7.9.8-1.8,1.7-3.5,2.5-5.3.4-.9.8-1.8,1.2-2.7.8-1.8,1.5-3.6,2.3-5.4,11.5-28.2,17.9-59.1,17.9-91.5s0-1.9,0-2.9ZM320,218c-2.2,6.7-5,13.1-8.3,19.1-2.5,4.6-5.3,9-8.4,13.2l-95.3,170.9-89.6-160.8-5.7-10.2c-14.3-19.5-22.7-43.5-22.7-69.6s15-66,38.9-87.5c6.8-6.2,14.4-11.6,22.6-16,16.8-9.2,36-14.4,56.5-14.4,36.7,0,69.5,16.8,91.2,43.1,16.8,20.4,26.8,46.5,26.8,74.9s-2.1,25.6-6,37.2Z"/>
  <g>
    <path class="cls-1" d="M262.5,180.8c0,30.1-24.4,54.5-54.5,54.5s-27.7-5.7-37.5-15c-10.5-9.9-17-24-17-39.5s12.6-40.3,31-49.1c7.1-3.4,15.1-5.3,23.5-5.3,30.1,0,54.5,24.4,54.5,54.4Z"/>
    <path class="cls-1" d="M60.5,50.1c-2.1,1.6-4.2,3.3-6.3,5-1.4,1.1-2.8,2.3-4.1,3.5-.7.6-1.3,1.2-2,1.8-.7.6-1.3,1.2-2,1.8-.7.6-1.3,1.2-2,1.8,0,0,.2-.2.3-.3,5-4.9,10.4-9.5,16.1-13.7h0c0,0,0,.1,0,.1Z"/>
  </g>
</svg>