<?xml version="1.0" encoding="UTF-8"?>
<svg id="Layer_1" data-name="Layer 1" xmlns="http://www.w3.org/2000/svg" viewBox="0 0 505.4 505.4">
  <defs>
    <style>
      .cls-1 {
        fill: #9f2a35;
      }
    </style>
  </defs>
  <path class="cls-1" d="M252.7,131.9c-8.8,0-17.1,2-24.5,5.5-19.1,9.2-32.3,28.7-32.3,51.3s6.8,30.9,17.7,41.3c10.2,9.7,24,15.6,39.1,15.6,31.4,0,56.9-25.4,56.9-56.9s-25.5-56.8-56.9-56.8Z"/>
  <path class="cls-1" d="M505.3,249.1c0-1,0-1.9,0-2.9,0-1.1,0-2.2-.1-3.2,0-1.1,0-2.2-.1-3.2,0-.8,0-1.6-.1-2.4,0-.4,0-.9,0-1.3,0-.9-.1-1.8-.2-2.7,0-1.1-.2-2.1-.3-3.2,0-1.1-.2-2.1-.3-3.2-.1-1.2-.3-2.4-.4-3.6-.1-.9-.2-1.9-.3-2.8-.2-1.8-.5-3.7-.8-5.5-.1-.9-.3-1.9-.4-2.8-.1-.8-.3-1.7-.4-2.5-.1-.8-.3-1.6-.4-2.3,0-.1,0-.2,0-.3-.2-1-.4-2.1-.6-3.1,0-.4-.1-.8-.2-1.2-.2-1.1-.4-2.1-.7-3.2-.1-.7-.3-1.3-.4-2-1-4.6-2.1-9.1-3.4-13.5,0-.2-.1-.4-.2-.7-1.5-5.3-3.2-10.6-5.1-15.8,0-.1,0-.2-.1-.3,0-.3-.2-.5-.3-.8-.2-.6-.4-1.3-.7-1.9-.3-.7-.5-1.4-.8-2.1-.3-.8-.6-1.5-.9-2.3-.2-.5-.4-.9-.6-1.4-.3-.7-.6-1.5-.9-2.2-1-2.4-2-4.8-3.1-7.1-1.2-2.6-2.4-5.3-3.7-7.8-1.1-2.3-2.3-4.6-3.5-6.8,0-.2-.2-.4-.3-.5-.2-.3-.4-.7-.5-1-.7-1.3-1.4-2.7-2.2-4-.8-1.4-1.5-2.7-2.3-4-.8-1.3-1.6-2.7-2.4-4s-1.6-2.6-2.4-3.9c0,0,0,0,0,0-.8-1.2-1.5-2.3-2.3-3.5-.2-.3-.4-.5-.5-.8-.4-.6-.8-1.1-1.1-1.7-.4-.6-.8-1.1-1.1-1.7-.5-.8-1.1-1.5-1.6-2.3-1.1-1.5-2.2-3.1-3.3-4.6-.6-.8-1.1-1.5-1.7-2.3-.8-1.1-1.6-2.1-2.4-3.1-.7-.9-1.5-1.9-2.2-2.8-.6-.7-1.1-1.4-1.7-2.1,0,0,0,0,0-.1-.6-.7-1.1-1.3-1.7-2-1.2-1.5-2.5-3-3.8-4.4-.9-1.1-1.9-2.1-2.9-3.2-.3-.3-.6-.6-.9-.9-.6-.7-1.3-1.4-2-2.1,0,0,0-.1-.1-.1-1-1-1.9-2-2.9-3-.7-.7-1.3-1.4-2-2.1-.6-.6-1.2-1.2-1.8-1.8-1.5-1.4-2.9-2.8-4.4-4.2-.9-.8-1.7-1.6-2.6-2.4-.7-.6-1.4-1.2-2.1-1.8-.7-.6-1.4-1.2-2-1.8-.5-.4-1-.9-1.5-1.3-.2-.1-.4-.3-.5-.4-.5-.4-1-.8-1.5-1.3-1-.9-2.1-1.8-3.2-2.6-.2-.2-.4-.3-.6-.5-1.2-1-2.5-2-3.7-3-.3-.3-.7-.5-1-.8-.3-.2-.6-.4-.9-.7-.4-.3-.7-.6-1.1-.8-1-.7-1.9-1.5-2.9-2.2-.6-.4-1.2-.9-1.8-1.3-.6-.4-1.2-.9-1.8-1.3-.1,0-.3-.2-.4-.3-1.2-.8-2.4-1.7-3.6-2.5,0,0,0,0,0,0-.1-.1-.2-.2-.4-.3-.6-.4-1.1-.7-1.7-1.1-.6-.4-1.1-.7-1.7-1.1-.9-.6-1.8-1.2-2.7-1.8-.7-.5-1.5-.9-2.2-1.4-.2-.1-.3-.2-.5-.3-.3-.2-.7-.4-1-.6-1-.6-2-1.2-3.1-1.8-.7-.4-1.4-.8-2.1-1.2-.9-.5-1.8-1-2.7-1.5,0,0,0,0-.1,0-.2-.1-.4-.2-.5-.3,0,0,0,0-.1,0-1.4-.8-2.9-1.6-4.3-2.3,0,0-.1,0-.2-.1-.2-.1-.4-.2-.6-.3-1.6-.9-3.3-1.7-4.9-2.5-.5-.2-1-.5-1.5-.7-1.3-.6-2.7-1.3-4-1.9-.1,0-.3-.1-.4-.2-.9-.4-1.8-.8-2.7-1.3-1.1-.5-2.2-1-3.2-1.4-1.4-.6-2.9-1.2-4.3-1.8-1.4-.6-2.7-1.1-4.1-1.6-.6-.3-1.2-.5-1.9-.7-1-.4-2-.8-3-1.1-.9-.3-1.8-.6-2.7-.9-1-.4-2-.7-3.1-1.1-.7-.2-1.4-.5-2-.7-.9-.3-1.8-.6-2.7-.9-.9-.3-1.7-.6-2.6-.8-1.3-.4-2.7-.8-4-1.2-.2,0-.4-.1-.7-.2,0,0,0,0-.1,0,0,0-.2,0-.3,0-.7-.2-1.4-.4-2.1-.6-.5-.2-1.1-.3-1.6-.4-.4-.1-.8-.2-1.3-.3-.2,0-.4-.1-.6-.2-1.5-.4-3.1-.8-4.6-1.2-.6-.1-1.2-.3-1.8-.4,0,0,0,0-.1,0-1.1-.3-2.2-.5-3.3-.7,0,0,0,0-.1,0-.2,0-.5,0-.7-.1-.9-.2-1.8-.4-2.6-.6-.7-.1-1.3-.3-2-.4-1.7-.3-3.5-.7-5.2-.9-.1,0-.3,0-.4,0-.1,0-.3,0-.4,0-1.3-.2-2.7-.4-4-.6-.3,0-.7-.1-1-.1-.7-.1-1.4-.2-2.1-.3-.2,0-.3,0-.5,0-.3,0-.6,0-.8-.1-.5,0-.9-.1-1.4-.2-.3,0-.5,0-.7,0,0,0,0,0,0,0-.5,0-1-.1-1.5-.2-1.4-.2-2.9-.4-4.3-.5-.7,0-1.4-.1-2.1-.2-.4,0-.9,0-1.3-.1-1,0-2-.2-3-.3-.9,0-1.9-.1-2.9-.2-.6,0-1.3,0-2-.1-.6,0-1.2,0-1.8-.1-.2,0-.4,0-.5,0-.8,0-1.6,0-2.4-.1-.1,0-.2,0-.3,0-1.6,0-3.1-.1-4.7-.1-.6,0-1.2,0-1.8,0h0c-.6,0-1.3,0-1.9,0h-2.7c-.4,0-.9,0-1.4,0-.2,0-.4,0-.6,0-.7,0-1.4,0-2.2,0-.3,0-.6,0-.9,0-.6,0-1.2,0-1.8,0-.9,0-1.8,0-2.7.1-.9,0-1.8,0-2.7.1-1.8,0-3.6.2-5.3.3-.4,0-.8,0-1.2,0-1.4,0-2.8.2-4.1.4-.9,0-1.7.2-2.6.3-.9,0-1.8.2-2.7.3-1.8.2-3.5.4-5.3.7-.2,0-.4,0-.6,0-.6,0-1.3.2-2,.3-.6,0-1.2.2-1.8.3-.6,0-1.2.2-1.8.3,0,0-.2,0-.3,0-.4,0-.9.1-1.3.2-.2,0-.3,0-.5,0-.5,0-.9.2-1.4.2-.3,0-.5,0-.7.1-1.5.3-2.9.5-4.3.8-.3,0-.6.1-.8.2-.2,0-.5.1-.7.1-.8.2-1.6.3-2.5.5-.4.1-.8.2-1.2.3-.7.1-1.3.3-2,.4-.4,0-.9.2-1.3.3-1.1.3-2.1.5-3.2.8-1.1.3-2.1.5-3.1.8-.8.2-1.6.4-2.3.6-1.5.4-3,.8-4.5,1.3-.8.2-1.6.5-2.5.7-1,.3-2.1.6-3.1,1-1,.3-2,.7-3.1,1-.8.3-1.6.5-2.4.8-1.4.5-2.8,1-4.2,1.5-1,.4-2,.8-3.1,1.1-.1,0-.3,0-.4.2-4.3,1.6-8.5,3.3-12.6,5.2-1.1.5-2.1.9-3.2,1.4-.9.4-1.8.8-2.7,1.3-.3.1-.5.2-.7.4-.6.3-1.1.5-1.7.8-.8.4-1.6.8-2.4,1.2-.7.3-1.3.7-2,1-.2,0-.3.2-.5.2-.7.3-1.3.7-2,1-.7.3-1.3.7-2,1.1-.6.3-1.3.7-1.9,1-.9.5-1.7.9-2.5,1.4-1.2.7-2.4,1.4-3.6,2-.3.2-.6.4-.9.5-1.1.7-2.2,1.3-3.3,2,0,0-.2,0-.3.2-1.3.8-2.6,1.6-3.9,2.4-.1,0-.2.1-.3.2-1.1.7-2.2,1.4-3.3,2.1-.2.2-.5.3-.7.5-1.2.8-2.4,1.6-3.6,2.5-1.5,1-3,2.1-4.4,3.1,0,0,0,0,0,0,0,0,0,0,0,0-1.1.8-2.2,1.6-3.3,2.5-.4.3-.8.6-1.2.9,0,0,0,0-.1,0-.4.3-.7.5-1.1.8h0s0-.1,0-.1c-5.9,4.4-11.6,9.2-16.8,14.3,0,0,0,0-.1.1,0,0,0,0,0,0,0,0,0,0-.1.1C31.4,112.9,0,179.1,0,252.7s26.6,129.2,70,174.5c.6.7,1.3,1.3,1.9,2,.5.5.9,1,1.4,1.4,1,1,2.1,2.1,3.1,3.1.6.6,1.3,1.3,1.9,1.9.7.7,1.5,1.4,2.2,2.1,3,2.8,6,5.4,9.1,8,.5.5,1.1.9,1.6,1.4,1.8,1.5,3.6,3,5.4,4.4.6.5,1.2.9,1.8,1.4,1.1.9,2.3,1.8,3.4,2.6.6.5,1.3,1,1.9,1.4,0,0,.1.1.2.2.8.6,1.5,1.1,2.3,1.7.8.6,1.7,1.2,2.5,1.8,1.5,1,2.9,2,4.4,3,7.8,5.2,15.9,9.9,24.3,14.2.8.4,1.7.9,2.5,1.3,0,0,.1,0,.2,0,.9.4,1.8.9,2.6,1.3.5.2.9.4,1.4.7.5.2,1,.5,1.5.7,1,.5,2,.9,3,1.4.1,0,.3.1.4.2.3.1.5.2.8.3.8.3,1.6.7,2.4,1.1.3.1.7.3,1,.4.7.3,1.4.6,2,.9.7.3,1.4.6,2,.8,1,.4,2,.8,3,1.2,1.1.4,2.2.9,3.4,1.3,1,.4,2,.8,3,1.1,1.1.4,2.3.8,3.4,1.2.8.3,1.7.6,2.5.9,1.1.4,2.2.7,3.3,1.1,1,.3,2.1.6,3.1.9.5.2,1.1.3,1.6.5.5.2,1.1.3,1.6.5.5.2,1.1.3,1.6.5s1.1.3,1.6.4c1.1.3,2.1.6,3.2.9,1,.3,2,.5,2.9.8,0,0,.1,0,.2,0,2,.5,4,.9,5.9,1.4.3,0,.6.1.9.2,1.5.3,3,.6,4.4.9.6.1,1.3.3,1.9.4.4,0,.8.1,1.2.2.7.1,1.4.3,2.2.4,1.1.2,2.2.4,3.3.6,1.9.3,3.9.6,5.8.9.4,0,.8.1,1.2.2,2.8.4,5.6.7,8.5,1,.2,0,.4,0,.5,0,1.3.1,2.6.3,4,.4.3,0,.7,0,1,0,.4,0,.8,0,1.2,0,1.3.1,2.5.2,3.7.3.6,0,1.3,0,1.9.1,0,0,0,0,0,0,.6,0,1.1,0,1.7,0,0,0,0,0,.1,0,.9,0,1.8,0,2.8.1.8,0,1.7,0,2.5,0,.3,0,.6,0,.9,0,.7,0,1.4,0,2.1,0,.9,0,1.9,0,2.8,0,19.6,0,38.7-2.2,57.1-6.5,3.1-.7,6.1-1.5,9.1-2.3,2-.5,4-1.1,6-1.7h0c2-.6,4-1.2,5.9-1.8,2-.6,3.9-1.3,5.9-2,1.9-.7,3.9-1.4,5.8-2.1h0c1.4-.6,2.9-1.1,4.3-1.7s2.8-1.2,4.3-1.8c2.8-1.2,5.6-2.4,8.4-3.7,1.8-.9,3.7-1.8,5.5-2.7,2.7-1.4,5.5-2.8,8.2-4.2,1.8-1,3.6-2,5.3-3,1.8-1,3.5-2,5.3-3.1,1.7-1.1,3.5-2.1,5.2-3.2h0c1.7-1.1,3.4-2.2,5.1-3.4h0c1.7-1.1,3.3-2.3,5-3.5,3.3-2.3,6.6-4.8,9.7-7.3,1.6-1.3,3.2-2.5,4.7-3.8.8-.6,1.6-1.3,2.3-2,1.5-1.3,3.1-2.6,4.6-4,3.8-3.3,7.5-6.8,11-10.4.7-.7,1.4-1.4,2.1-2.2.7-.7,1.4-1.5,2.1-2.2,1.1-1.1,2.1-2.2,3.1-3.4.3-.3.7-.7,1-1.1.7-.7,1.4-1.5,2-2.3.9-1,1.7-2,2.6-2.9.3-.4.6-.7.9-1.1.8-1,1.6-1.9,2.4-2.9,1-1.2,1.9-2.3,2.9-3.5.7-.9,1.5-1.9,2.2-2.8,9.1-11.7,17.1-24.2,24-37.5.5-.9,1-1.9,1.5-2.8.1-.3.3-.6.4-.9.6-1.2,1.2-2.4,1.8-3.7.9-1.8,1.7-3.7,2.6-5.6.4-.9.8-1.9,1.3-2.8.8-1.9,1.6-3.8,2.4-5.7,1.6-3.8,3-7.7,4.4-11.5.3-1,.7-1.9,1-2.9.6-1.7,1.2-3.5,1.7-5.3.1-.5.3-.9.4-1.4.2-.7.4-1.5.7-2.2.3-.9.5-1.8.8-2.8,0-.2.1-.4.2-.7.2-.8.5-1.7.7-2.5.3-1,.5-1.9.8-2.9,0-.1,0-.3.1-.4.2-.7.4-1.5.6-2.2.3-1.3.7-2.7,1-4,.2-.9.4-1.7.6-2.6.2-1,.4-2,.6-3.1.2-.8.3-1.6.5-2.5.3-1.4.5-2.8.8-4.1.2-.9.3-1.8.4-2.6,0,0,0,0,0-.1.1-.8.3-1.6.4-2.5,0-.3.1-.7.2-1,0-.6.2-1.3.3-1.9.4-2.4.7-4.8.9-7.3.1-1,.2-1.9.3-2.9,0,0,0-.2,0-.2,0-.9.2-1.9.3-2.8,0-.1,0-.3,0-.4,0-1,.2-2.1.3-3.1,0-.9.1-1.8.2-2.7.2-3.4.4-6.8.5-10.2,0-.8,0-1.7,0-2.5,0-1.3,0-2.7,0-4s0-2.4,0-3.6ZM83.4,65.1c0,0,.1-.1.2-.2.5-.5,1-.9,1.6-1.4-.6.5-1.2,1.1-1.8,1.6ZM369.6,227.6c-2.3,7-5.2,13.6-8.7,20-2.6,4.8-5.5,9.4-8.7,13.8l-99.5,178.4-93.5-167.8-5.9-10.6c-14.9-20.4-23.7-45.5-23.7-72.7s15.7-68.8,40.6-91.4c7.1-6.5,15-12.1,23.6-16.7,17.5-9.6,37.6-15,59-15,38.3,0,72.6,17.5,95.2,45,17.5,21.3,28,48.5,28,78.2s-2.2,26.7-6.3,38.9Z"/>
</svg>