<?xml version="1.0" encoding="UTF-8"?>
<svg id="Layer_1" data-name="Layer 1" xmlns="http://www.w3.org/2000/svg" viewBox="0 0 450.1 484.2">
  <defs>
    <style>
      .cls-1 {
        fill: #9f2a35;
      }
    </style>
  </defs>
  <path class="cls-1" d="M293.4,15.5c2.4.9,4.8,1.9,7.2,2.9-2.4-1-4.8-1.9-7.2-2.9ZM247.2,3.2c2.7.4,5.3.9,7.9,1.4-2.6-.5-5.3-1-7.9-1.4ZM426.2,347c1.3-2.6,2.5-5.3,3.7-8-1.2,2.7-2.4,5.4-3.7,8ZM423,353.6c1.1-2.2,2.2-4.3,3.3-6.6-1.1,2.2-2.2,4.4-3.3,6.6ZM419.5,360c1.2-2.1,2.3-4.3,3.5-6.4-1.1,2.2-2.3,4.3-3.5,6.4ZM414.3,368.9c1.8-2.9,3.5-5.9,5.2-8.9-1.7,3-3.4,5.9-5.2,8.9ZM410.1,375.4c1.4-2.1,2.8-4.3,4.1-6.5-1.4,2.2-2.7,4.3-4.1,6.5ZM399.9,389.7c2.3-3,4.5-6,6.7-9.1-2.2,3.1-4.4,6.2-6.7,9.1Z"/>
  <g>
    <path class="cls-1" d="M229.8,151.8c-6-9.5-14.1-14.3-24-14.3s-11,1.3-16,3.9c-8.9,4.6-16.5,13.5-22.9,26.5-7.1,14.4-11.7,31.9-13.8,52.5-.8,8.2-1.2,17-1.2,26.2s.4,13.4,1.2,19.3c1.4,10.3,3.9,18.9,7.6,25.9,5.9,10.9,14.1,16.3,24.6,16.3s23.2-6.4,31.8-19.3c8.2-12.4,13.8-29.6,16.7-51.5.1-.9.2-1.8.3-2.7l4.5-39.2c.2-1,.3-2.8.3-5.2,0-15.9-3-28.7-9.1-38.2ZM227.6,159.1c-3.7-3.3-7.3-5-10.8-5-6.2,0-11.8,1.9-16.9,5.8-5.8,4.4-11,11.4-15.4,20.9-5.1,11.1-8.7,24.3-10.6,39.6-1.2,9.2-1.8,19.2-1.8,29.9s.1,8.9.4,12.9c1.4,21,6.7,34.3,15.6,39.9l-.3,1.6c-12.1-3.3-19.3-16.7-21.6-40.1-.5-5.3-.8-11.1-.8-17.4,0-9.5.5-18.4,1.5-26.8,2.1-17.3,6.3-32.1,12.7-44.3,5-9.6,10.8-16.6,17.4-21.1,5.9-4,12.5-6.1,19.6-6.1s9.1,2.9,12.6,8.7l-1.8,1.6Z"/>
    <g>
      <path class="cls-1" d="M450.1,239.2c0-1.2,0-2.3,0-3.5,0-1,0-2-.1-3,0-.8,0-1.7,0-2.5,0-.9,0-1.8-.2-2.7,0-.6,0-1.2-.1-1.8-.1-1.9-.3-3.8-.4-5.7,0-.8-.1-1.5-.2-2.2-.1-1.2-.2-2.3-.4-3.5-.1-.9-.2-1.8-.3-2.7,0-.3,0-.6-.1-1-.1-.8-.2-1.6-.3-2.4-.1-.9-.3-1.8-.4-2.7,0-.3,0-.5-.1-.8-.1-.8-.3-1.7-.4-2.5-.2-1.1-.4-2.2-.6-3.2-.2-.9-.3-1.8-.5-2.7-1.1-5.7-2.4-11.2-3.8-16.8-.5-2-1.1-4-1.7-6-.2-.7-.4-1.4-.6-2.1-.2-.8-.5-1.6-.7-2.4-.4-1.2-.8-2.5-1.2-3.8-.6-1.8-1.2-3.5-1.9-5.3-.4-1.2-.9-2.4-1.3-3.6-.5-1.4-1-2.7-1.6-4.1,0-.1,0-.2-.1-.3-.5-1.1-.9-2.2-1.4-3.3-.1-.3-.2-.6-.4-.9-.5-1.3-1.1-2.6-1.7-3.9-.6-1.4-1.2-2.7-1.8-4.1,0,0,0,0,0,0-.6-1.2-1.1-2.4-1.7-3.6-.1-.3-.3-.5-.4-.8-.6-1.2-1.2-2.4-1.8-3.5,0,0,0,0,0,0-.7-1.3-1.4-2.6-2.1-4-.7-1.2-1.4-2.5-2-3.7,0,0,0-.1-.1-.2-.7-1.3-1.4-2.5-2.2-3.8-.5-.8-1-1.7-1.5-2.5-.4-.7-.9-1.4-1.3-2.2-.6-1-1.2-1.9-1.8-2.9-.7-1.1-1.4-2.2-2.2-3.4,0-.1-.2-.2-.2-.4-.8-1.2-1.6-2.5-2.5-3.7-.7-1.1-1.5-2.1-2.2-3.2,0,0,0-.1-.1-.2-.8-1.1-1.6-2.2-2.4-3.3-.8-1.1-1.6-2.2-2.5-3.3,0,0-.1-.1-.2-.2-.8-1-1.6-2-2.4-3,0,0,0,0,0,0-.6-.8-1.3-1.6-2-2.5-1.1-1.3-2.2-2.6-3.2-3.9-.9-1-1.8-2.1-2.7-3.1-.9-1-1.8-2.1-2.7-3.1,0,0,0,0,0,0-.9-1-1.8-2-2.7-2.9,0,0,0,0-.1-.1-.8-.9-1.7-1.8-2.5-2.7-.2-.2-.4-.4-.6-.6-.8-.9-1.7-1.7-2.5-2.5-1-1-2-1.9-2.9-2.9-.9-.9-1.9-1.8-2.8-2.7-1.2-1.1-2.4-2.2-3.6-3.2-.9-.8-1.8-1.6-2.7-2.4-1-.9-2.1-1.8-3.1-2.7-1-.9-2.1-1.8-3.2-2.6-1.1-.9-2.1-1.7-3.2-2.6-1.1-.9-2.2-1.7-3.3-2.5-1.1-.8-2.2-1.7-3.3-2.5,0,0,0,0,0,0-1.1-.8-2.2-1.6-3.3-2.3-1.1-.8-2.3-1.6-3.4-2.3-1.1-.8-2.3-1.5-3.4-2.3-1.2-.8-2.3-1.5-3.5-2.2-1.1-.7-2.2-1.4-3.4-2.1-.2-.1-.4-.2-.6-.4-1-.6-2-1.2-3.1-1.8-1.2-.7-2.4-1.4-3.6-2.1-.1,0-.2-.1-.3-.2-1.1-.6-2.2-1.2-3.3-1.8-1.2-.7-2.4-1.3-3.7-1.9-1.2-.6-2.5-1.3-3.7-1.9s-2.5-1.2-3.7-1.8c-1.3-.6-2.5-1.2-3.8-1.8,0,0,0,0,0,0-2.3-1-4.7-2.1-7.1-3.1-2.4-1-4.8-1.9-7.2-2.9,0,0-.2,0-.2,0-.9-.4-1.9-.7-2.8-1-1-.4-2-.7-3-1-.9-.3-1.7-.6-2.6-.9-.3-.1-.7-.2-1-.3-.8-.3-1.6-.5-2.4-.8-1-.3-2-.6-3-.9-1-.3-2-.6-3-.9-1-.3-2-.6-3.1-.9-1.7-.5-3.4-.9-5.1-1.3-1.4-.3-2.8-.7-4.2-1-1.3-.3-2.6-.6-3.9-.9-1.3-.3-2.6-.5-3.9-.8-2.6-.5-5.3-1-7.9-1.4-1.1-.2-2.1-.3-3.2-.5-.9-.1-1.9-.3-2.8-.4-1.3-.2-2.6-.4-4-.5-1-.1-1.9-.2-2.9-.3-1.1-.1-2.2-.2-3.2-.3-.8,0-1.7-.2-2.5-.2-.5,0-1,0-1.4-.1-.9,0-1.7-.1-2.6-.2-.9,0-1.9-.1-2.8-.2-.6,0-1.2,0-1.9-.1-.8,0-1.6,0-2.5-.1-3.1-.1-6.2-.2-9.4-.2s-2.1,0-3.1,0c-1,0-2.1,0-3.1,0-1,0-1.9,0-2.9,0-1.1,0-2.2,0-3.3.2-.7,0-1.4,0-2.1.1-.6,0-1.2,0-1.8.1-.8,0-1.5.1-2.3.2-1,0-2,.2-3.1.2-.8,0-1.6.1-2.4.2-.6,0-1.2.1-1.8.2-.8,0-1.5.2-2.3.3-.1,0-.3,0-.4,0-.8,0-1.5.2-2.2.3-1,.1-2,.3-3,.4-1.1.2-2.2.3-3.4.5-.9.1-1.8.3-2.7.4-2.1.3-4.2.7-6.3,1.1-.9.2-1.8.3-2.7.5-.9.2-1.8.4-2.7.6-.2,0-.3,0-.5.1-.9.2-1.8.4-2.7.6-.9.2-1.9.4-2.8.7-4.4,1.1-8.8,2.3-13.1,3.6-.6.2-1.1.3-1.7.5-.3,0-.6.2-.9.3-1.3.4-2.5.8-3.8,1.2-1.7.5-3.3,1.1-4.9,1.7-.7.2-1.3.5-2,.7-1.5.6-3.1,1.2-4.6,1.8-.8.3-1.5.6-2.3.9-.8.3-1.5.6-2.3.9-.8.3-1.5.6-2.2.9-.8.3-1.5.7-2.2,1,0,0,0,0,0,0-1.5.6-2.9,1.3-4.3,2-1.6.8-3.2,1.5-4.8,2.3-.6.3-1.2.6-1.8.9-.7.4-1.5.7-2.2,1.1-2.9,1.5-5.7,3-8.6,4.6-.7.4-1.4.8-2.1,1.2-2.8,1.6-5.6,3.3-8.3,5-.7.4-1.4.9-2,1.3-2.7,1.8-5.4,3.6-8,5.4-.7.5-1.3.9-2,1.4-.7.5-1.3.9-2,1.4-.6.5-1.3,1-1.9,1.5-.6.5-1.3,1-1.9,1.5-1.4,1.1-2.8,2.2-4.2,3.3-.8.6-1.5,1.2-2.2,1.8-1.6,1.3-3.1,2.6-4.7,4-.7.6-1.3,1.1-1.9,1.7-1.1,1-2.2,1.9-3.2,2.9,0,0,0,0-.1.1s0,0,0,0c-5.6,5.5-10.8,11.5-15.4,17.8l.8.5,8.2,4.7c6.7,3.9,9.8,11.7,7.9,18.8-.4,1.4-.9,2.9-1.7,4.2-4.7,8.1-15,10.9-23.1,6.2l-8.3-4.8-.8-.5c-5.9,13.6-9.9,28.2-11.7,43.5h10.5c9.4,0,16.9,7.6,16.9,16.9s-7.6,16.9-16.9,16.9H0c1.8,15.3,5.8,29.9,11.7,43.6l.8-.5,8.3-4.8c2.4-1.4,4.9-2.1,7.4-2.2,2-40.9,16.4-76,43.1-105.3,8-8.8,17.1-17,27.3-24.8,4.4-3.3,8.9-6.5,13.4-9.3,28.8-18.5,59.8-27.7,93-27.7s82.8,13.4,112.8,40.1c3.1,2.8,6,5.6,8.8,8.5,24.2,25.2,36.2,55.7,36.2,91.5s-9,61.2-26.9,85.8c-14.9,20.4-31.8,32.3-50.7,35.8-3.9.7-7.9,1.1-12,1.1-23.3,0-35.8-12-37.6-36-15.1,25.2-34.2,37.9-57.3,37.9s-35.9-7.5-47.8-22.4c-8.7-10.9-14.2-24.4-16.6-40.7-.9-6-1.3-12.3-1.3-19,0-9.7.9-18.9,2.6-27.8h0c4-20.3,12.7-38.4,26-54.2,12.2-14.5,25.9-24.4,41.3-29.7h0c8.7-3,17.9-4.5,27.6-4.5s22.9,2.6,36.2,7.9c7,2.8,12.6,4.2,16.8,4.2s10.5-1.4,14.7-4.2l3.4,2.4-13.2,103.1-.5,3.9-2.4,23.1c-.5,5.4-.8,9.5-.8,12.1,0,6.7,1.6,12.1,4.9,16.3,3.2,4.2,7.4,6.3,12.5,6.3s4.7-.4,8.4-1.3c-8.1-5.8-12.1-14.2-12.1-25.2s.4-7.4,1.3-14.5l2.6-20.7,12.4-98.3,6,7.1-11.5,91.3-2.7,21.5c-.7,5.4-1,9.5-1,12.3,0,10.5,3.1,18.8,9.2,25,2-1,4-2.2,5.9-3.4,11.1-7.3,20.2-18.6,27.1-33.9,8.2-17.9,12.2-38.5,12.2-61.7,0-33.8-12.6-62.6-37.8-86.4-1.7-1.6-3.3-3.1-5-4.5-24.2-20.8-53.1-31.2-86.7-31.2s-26.3,1.7-38.5,5.1c-25.5,7-48.2,21.4-68.2,43.1-22.2,24.1-36.1,51.8-41.6,83.3-1.9,10.5-2.8,21.4-2.8,32.7,0,16.2,2.1,31.5,6.2,45.7,3.9,13.5,9.7,26.1,17.3,37.8,5.1,7.8,11,15.2,17.8,22.1,27.5,28.4,61.7,42.5,102.5,42.5s32.2-2.3,47.4-7c18-5.5,35.3-14.2,51.9-26.1,4.9-3.5,9.3-5.4,13.1-5.8,3.8-.4,5.7,1.3,5.5,5-.2,5.8-6.2,12.6-18.1,20.5-19.5,13.1-40.8,21.9-63.9,26.6-12.8,2.6-26.2,3.9-40.1,3.9-47.6,0-88-16.4-121.1-49.3-2.9-2.9-5.7-5.9-8.4-8.9l-27.2,47.6-9,15.7h0c1.2,1.3,2.5,2.6,3.8,3.9,2.1,2.1,4.2,4.1,6.3,6.1,2.1,2,4.3,3.9,6.5,5.8,3.7,3.2,7.4,6.2,11.3,9.2.8.6,1.5,1.2,2.3,1.8.8.6,1.6,1.2,2.4,1.8,2.3,1.7,4.6,3.3,7,4.9,0,0,0,0,.1,0,1.6,1.1,3.2,2.1,4.8,3.2,6.1,3.9,12.3,7.5,18.8,10.9,1.3.7,2.6,1.4,3.9,2,.9.4,1.8.9,2.7,1.3.9.4,1.8.8,2.6,1.3.9.4,1.8.8,2.7,1.2h0c.2.1.5.2.7.3,2.6,1.2,5.2,2.3,7.9,3.4,1,.4,1.9.8,2.8,1.1.8.3,1.5.6,2.3.9.6.2,1.3.5,1.9.7,1.7.6,3.5,1.3,5.2,1.9.8.3,1.6.5,2.4.8,1.1.4,2.2.7,3.3,1.1.9.3,1.7.6,2.6.8,1.1.3,2.2.7,3.4,1,.9.3,1.8.5,2.7.8,1.1.3,2.3.6,3.4.9,2,.5,3.9,1,5.9,1.5,2.2.5,4.4,1,6.6,1.4,2.1.4,4.2.8,6.3,1.2,1.1.2,2.1.4,3.2.5,1.1.2,2.1.3,3.2.5.9.1,1.8.3,2.7.4.6,0,1.1.2,1.7.2.8.1,1.6.2,2.4.3,1,.1,1.9.2,2.9.3,1.1.1,2.2.2,3.2.3.8,0,1.7.2,2.5.2.5,0,1,0,1.4.1.9,0,1.7.1,2.6.2.9,0,1.8.1,2.7.2.6,0,1.2,0,1.9,0,.9,0,1.7,0,2.6.1,3.1.1,6.2.2,9.4.2,66.8,0,127.4-27.1,171.2-70.9,3.4-3.4,6.7-7,10-10.6,1.9-2.2,3.8-4.4,5.7-6.6.6-.7,1.2-1.4,1.7-2.1.6-.8,1.2-1.5,1.8-2.2.5-.7,1-1.3,1.5-2,2.3-3,4.5-6,6.7-9.1.7-1,1.4-2.1,2.1-3.1.5-.7.9-1.4,1.4-2.1,1.4-2.1,2.8-4.3,4.1-6.5,1.8-2.9,3.5-5.9,5.2-8.9h0c1.2-2.1,2.3-4.3,3.5-6.4t0,0c1.1-2.2,2.2-4.3,3.3-6.6h0c1.3-2.7,2.5-5.3,3.7-8,.8-1.8,1.5-3.6,2.3-5.4.4-.9.7-1.8,1.1-2.7.7-1.8,1.4-3.7,2.1-5.5.7-1.9,1.3-3.7,2-5.6.6-1.9,1.2-3.8,1.8-5.6h0c.6-1.9,1.1-3.8,1.7-5.7h0c.5-1.9,1.1-3.8,1.6-5.8,2.2-8.7,4-17.6,5.3-26.7.3-2,.5-4,.8-6,.5-4.1.8-8.2,1.1-12.3.1-2.1.2-4.1.3-6.2.1-3.1.2-6.2.2-9.4s0-1.9,0-2.9ZM149.6,369.5c-28.5-13.5-48.9-32.5-61.3-56.9-5.6-11.1-9.6-23.2-11.9-36.5-1.6-9.4-2.5-19.3-2.5-29.8s.2-11.9.8-17.7c3-34.8,15.2-64.8,36.4-89.8h0c1.5-1.8,3-3.5,4.6-5.2,3.6-3.9,7.3-7.5,11.2-10.9,20.3-17.9,43.9-28.8,70.7-32.6,7.3-1,14.8-1.5,22.5-1.5,27.8,0,48,5.5,60.4,16.6l-5.5-1.6c-20.2-5.4-38.5-8.1-55.2-8.1s-9,.2-13.4.6c-25.9,2.3-48.7,11.2-68.5,26.8-6,4.7-11.6,10-17,15.9-10.4,11.4-18.8,23.9-25.1,37.5-8.4,18.2-13.2,38.3-14.2,60.5-.2,3.3-.2,6.6-.2,9.9,0,10.2.9,20,2.6,29.4,1.9,10.1,4.8,19.8,8.8,29,2.1,5,4.6,9.8,7.4,14.5,12.5,21.3,29.8,37,51.9,47.1l-2.4,2.9ZM285.9,413.5c-18.7,7.3-39.4,11.6-62,12.9-4.9.3-9.9.4-15,.4-20.7,0-38-2.6-52.1-7.8-14.1-5.2-28.1-14.2-41.9-26.9v-1.8c22.8,20,54.1,30,94,30s12.8-.2,18.8-.7c19.1-1.4,36.2-5,51.2-10.8,19.7-7.6,37.8-19.8,54.2-36.7l4.7,4.2c-11.9,15.9-29.2,28.3-52,37.2ZM356,300.9c-21.5,28.9-46.4,43.4-74.8,43.4s-6.7-.3-9.8-.9c-13.6-2.7-25-11.1-34-25.4-17.9,17-35.9,25.5-54.1,25.5s-30-6.7-41.5-20v-1c10.9,9.8,24.9,14.7,42,14.7s32-7.5,47.8-22.6l3.9-3.9c10.4,16.2,23.7,24.8,39.8,25.9,1.2,0,2.4.1,3.6.1,27,0,50.6-13.6,70.8-40.9,20.2-27.2,30.3-59.1,30.3-95.5s-7.3-55.4-21.9-77.5c-4-6-8.4-11.6-13.4-16.9-13.2-14-29.8-25.3-49.8-33.8l.5-3.2c23.3,8.2,42.5,20.5,57.7,37,3.8,4.1,7.3,8.5,10.5,13.1,16.4,23.2,24.6,50.3,24.6,81.3s-10.7,71.7-32.2,100.6Z"/>
      <path class="cls-1" d="M60.5,50.1c-1.4,1.1-2.8,2.2-4.2,3.3-.8.6-1.5,1.2-2.2,1.8-1.6,1.3-3.1,2.6-4.7,4-.7.6-1.3,1.1-1.9,1.7-1.1,1-2.2,1.9-3.2,2.9,5.1-5,10.5-9.6,16.3-13.9h0Z"/>
    </g>
  </g>
</svg>