<?xml version="1.0" encoding="UTF-8"?>
<svg id="Layer_1" data-name="Layer 1" xmlns="http://www.w3.org/2000/svg" viewBox="0 0 512 495.9">
  <defs>
    <style>
      .cls-1 {
        fill: #9f2a35;
      }
    </style>
  </defs>
  <polygon class="cls-1" points="407.2 168.7 377.3 113.9 310.1 113.9 280.2 168.7 310.1 223.5 377.3 223.5 407.2 168.7"/>
  <path class="cls-1" d="M462.7,237.7c5.3-9.1,16.9-12.2,26-6.9l9.3,5.4.9.5c6.7-15.3,11.2-31.8,13.1-49h-11.8c-10.5,0-19-8.5-19-19s8.5-19,19-19h11.8c-2-17.2-6.5-33.6-13.1-48.9l-.9.5-9.3,5.3c-9.1,5.3-20.7,2.2-26-6.9-.9-1.5-1.5-3.1-1.9-4.8-2.1-8.1,1.3-16.8,8.9-21.2l9.3-5.3.9-.5c-10.1-13.7-22.1-25.8-35.8-35.8l-.5.9-5.3,9.3c-5.3,9.1-16.9,12.2-26,6.9-9.1-5.2-12.2-16.9-6.9-26l5.3-9.3.5-.9c-15.2-6.7-31.7-11.2-48.9-13.1v11.7c0,10.5-8.5,19-19,19s-19-8.5-19-19V0H0l54.3,95h213.2c19.3-19.9,46.3-32.3,76.1-32.3s56.8,12.4,76.1,32.3c18.5,19.1,29.9,45.1,29.9,73.8s-11.4,54.7-29.9,73.8c-19.3,19.9-46.3,32.3-76.1,32.3s-56.9-12.4-76.1-32.3h-128.8l133.6,233.5,11.5,20h225.5l-44.4-77.7-53.7-93.9-.5-.9-5.3-9.3c-5.3-9.1-2.2-20.7,6.9-25.9,9.1-5.3,20.7-2.1,26,6.9l5.3,9.3.5.9c13.7-10.1,25.8-22.2,35.8-35.8l-.9-.5-9.3-5.4c-7.6-4.4-11-13.1-8.9-21.2.4-1.6,1.1-3.3,2-4.8Z"/>
</svg>